<svg width="50" height="36" viewBox="0 0 50 36" fill="none" xmlns="http://www.w3.org/2000/svg">
<g clip-path="url(#clip0_6_1765)">
<path d="M13.7703 35.676C13.7703 35.676 13.5268 35.6055 13.0654 35.4709C12.5848 35.3043 11.8864 35.0737 11.0405 34.6571C10.1883 34.2406 9.18868 33.6255 8.16343 32.7028C7.1446 31.7865 6.11935 30.5369 5.36964 28.935C4.61352 27.3459 4.12652 25.4235 4.12012 23.3538C4.12012 21.2905 4.58148 19.0862 5.57469 16.9909C6.54867 14.8891 8.1378 12.954 10.1434 11.4353C12.1555 9.91666 14.6097 8.90423 17.1215 8.39161C19.6398 7.87257 22.2478 7.82772 24.6379 8.3019C25.5286 8.47491 26.4064 8.64151 27.2779 8.81452C28.1301 8.96831 28.9567 9.1285 29.7577 9.25025C31.3468 9.51938 32.8206 9.67316 34.0381 9.64112C35.262 9.61549 36.1463 9.41044 36.7166 9.15413C37.0113 9.01957 37.2612 8.85297 37.4791 8.61588C37.6905 8.37879 37.8571 8.06481 37.9469 7.7252C38.1327 7.03956 38.0237 6.31548 37.7803 5.85412C37.5496 5.35431 37.101 5.10441 36.7102 5.0147C36.5179 4.96344 36.3513 4.96344 36.236 4.95703C36.1206 4.95703 36.0566 4.95062 36.0566 4.95062H35.9733C35.7298 4.94421 35.5375 4.73916 35.5375 4.49567C35.5375 4.37392 35.5952 4.26499 35.6785 4.18169C35.6785 4.18169 35.7362 4.13042 35.8387 4.0279C35.9476 3.92537 36.127 3.7844 36.3962 3.63702C36.6653 3.48964 37.0434 3.32304 37.5368 3.27178C38.0302 3.22052 38.6453 3.26537 39.2733 3.50246C40.5356 3.98304 41.7723 5.16849 42.4003 6.93063C42.7014 7.8085 42.8616 8.84656 42.7271 9.95511C42.5989 11.0572 42.176 12.2363 41.4711 13.2487C40.7791 14.2804 39.8243 15.1262 38.8055 15.7862C37.7803 16.427 36.6845 16.9076 35.576 17.2344C33.3589 17.8815 31.1097 18.061 28.9119 17.952C27.8097 17.888 26.7204 17.7662 25.6439 17.5612C25.112 17.4586 24.5802 17.3497 24.0227 17.2023C23.4204 17.0613 23.0551 16.9332 22.4784 16.773C20.9982 16.254 19.4924 15.7862 17.9674 15.7413C16.4423 15.6837 14.9557 16.0553 13.6293 16.741C12.2901 17.4266 11.1431 18.4647 10.2332 19.6693C9.32325 20.8804 8.7081 22.2965 8.42615 23.7062C8.12499 25.1224 8.15062 26.5385 8.44538 27.8072C8.74014 29.076 9.27198 30.2101 9.90635 31.1329C10.5407 32.0556 11.2584 32.7733 11.8928 33.3307C12.5335 33.8882 13.0974 34.2599 13.4755 34.5098C13.8856 34.7533 14.1099 34.8878 14.1099 34.8878C14.3149 35.0096 14.379 35.2723 14.2572 35.4773C14.1611 35.6568 13.9561 35.7272 13.7703 35.676Z" fill="white"/>
<path d="M13.5716 35.5862C13.5716 35.5862 13.3153 35.5541 12.8347 35.4965C12.3478 35.426 11.6044 35.3042 10.7009 35.0607C9.79104 34.8237 8.6889 34.4328 7.49065 33.792C6.2988 33.1448 4.99801 32.2477 3.82539 30.9598C2.65276 29.691 1.60188 28.0506 0.903435 26.1283C0.211394 24.2059 -0.121811 22.0081 0.0383835 19.7333C0.121685 18.5927 0.313919 17.4329 0.653531 16.2859C0.999552 15.1389 1.48654 14.0047 2.12092 12.9218C3.37684 10.756 5.27355 8.80161 7.59958 7.46879C9.9192 6.12956 12.5784 5.34781 15.1608 5.19403C15.808 5.14917 16.4487 5.13636 17.0767 5.1748C17.3907 5.18762 17.7047 5.20684 18.0122 5.24529L18.4736 5.29655L18.5889 5.30937L18.621 5.31577C18.6402 5.31577 18.5569 5.30296 18.6018 5.30937L18.6466 5.31577L18.8324 5.34141C19.7103 5.45034 20.5818 5.56568 21.434 5.6682C23.0872 5.87325 24.6315 6.0783 25.9515 6.09753C27.2843 6.1552 28.3352 5.995 29.0016 5.8284C29.3348 5.73869 29.5911 5.6618 29.809 5.54005C30.0333 5.42471 30.2255 5.2517 30.3665 5.0082C30.6548 4.5148 30.642 3.87402 30.469 3.45111C30.3793 3.24606 30.2383 3.04101 30.0461 2.92567C29.8538 2.80392 29.6296 2.74625 29.4309 2.71421C29.2259 2.68858 29.0593 2.7014 28.9375 2.7014C28.8158 2.7078 28.7517 2.71421 28.7517 2.71421L28.6748 2.72062C28.4313 2.73984 28.2134 2.55402 28.1942 2.31052C28.1878 2.19518 28.2199 2.09266 28.2839 2.00935C28.2839 2.00935 28.3288 1.94528 28.4185 1.82994C28.5082 1.70819 28.662 1.54158 28.9119 1.34294C29.1554 1.1443 29.5142 0.920029 30.0204 0.791873C30.5203 0.65731 31.1931 0.618863 31.8915 0.836728C33.2948 1.25323 34.7045 2.58606 35.1979 4.60451C35.4478 5.60413 35.435 6.78316 35.0762 7.94297C34.7174 9.10278 34.0189 10.1985 33.141 11.0572C32.2696 11.9286 31.2507 12.5886 30.1999 13.082C29.1554 13.5946 28.0661 13.9086 26.9832 14.1649C24.8045 14.6263 22.6066 14.7224 20.4536 14.5045C19.9089 14.4469 19.3835 14.3828 18.8388 14.2867L18.0058 14.1329L17.2818 13.9663L17.1023 13.9214L16.9101 13.8766L16.641 13.8061C16.4616 13.7548 16.2757 13.7164 16.0963 13.6715C15.7311 13.5818 15.3722 13.4985 15.0134 13.4409C13.5716 13.191 12.085 13.191 10.7394 13.71C9.38735 14.197 8.16346 15.1069 7.18948 16.2987C6.22831 17.497 5.51064 18.9516 5.11335 20.4766C4.70966 22.0017 4.67122 23.5844 4.88908 25.0646C5.10695 26.5448 5.62598 27.9096 6.33084 29.0695C7.03569 30.2229 7.88793 31.1904 8.7658 31.9401C9.64366 32.6899 10.5215 33.2409 11.2777 33.6574C12.0402 34.0739 12.6617 34.3367 13.0975 34.5161C13.5524 34.6891 13.7895 34.7788 13.7895 34.7788C14.0138 34.8621 14.1227 35.112 14.0394 35.3299C13.9561 35.5029 13.7639 35.6118 13.5716 35.5862Z" fill="white"/>
<path d="M33.0962 20.5023C33.0962 20.5023 33.3717 20.4574 33.8523 20.4062C34.0894 20.3805 34.3777 20.3549 34.711 20.3165C35.0378 20.2716 35.3966 20.2075 35.7811 20.1627C36.1655 20.1114 36.5884 20.0217 37.0242 19.9512C37.4599 19.8743 37.9084 19.759 38.3698 19.6629C38.8248 19.5283 39.2989 19.4258 39.7539 19.2592C39.9782 19.1823 40.2088 19.1054 40.4395 19.0221L41.1059 18.753C41.3302 18.6761 41.5353 18.5479 41.7467 18.4518C41.9582 18.3557 42.1696 18.2596 42.3683 18.1378C42.772 17.92 43.1436 17.6701 43.5024 17.4394C43.8421 17.1831 44.1753 16.9396 44.4572 16.6768C44.7584 16.4333 45.0019 16.1642 45.239 15.9271C45.6939 15.4401 46.0271 14.9916 46.245 14.6712C46.4628 14.3444 46.5846 14.165 46.5846 14.165L46.6679 14.0432C47.2254 13.2038 48.3531 12.9795 49.1862 13.5306C50.0128 14.0753 50.2434 15.1838 49.718 16.0168C49.718 16.0168 49.5514 16.2796 49.2631 16.7409C48.9491 17.1831 48.4685 17.8046 47.8149 18.4646C47.4689 18.7786 47.1036 19.1246 46.6743 19.4322C46.2642 19.7718 45.7772 20.0473 45.2838 20.3357C45.0275 20.4638 44.7712 20.5984 44.5085 20.733C44.2457 20.8547 43.9638 20.9508 43.6883 21.0662C43.1372 21.284 42.5541 21.4442 41.9774 21.566L41.1059 21.7326C40.8176 21.7646 40.5292 21.7903 40.2409 21.8223C39.6706 21.8992 39.1067 21.8479 38.5749 21.8607C38.0366 21.8095 37.524 21.7839 37.0434 21.707C36.5628 21.6173 36.1143 21.5468 35.7042 21.4378C35.2941 21.3353 34.9224 21.2072 34.602 21.111C34.2816 21.0085 34.0189 20.8932 33.7946 20.8035C33.3461 20.6176 33.0962 20.5023 33.0962 20.5023Z" fill="white"/>
<path d="M43.906 12.8898C43.906 12.8898 43.9765 12.6719 44.1239 12.3131C44.2072 12.1401 44.2777 11.9222 44.3674 11.6915C44.4635 11.4609 44.5596 11.1917 44.6685 10.9162C45.0914 9.78842 45.5272 8.37871 45.6297 7.04589C45.7579 5.70666 45.5464 4.38666 45.2581 3.40626C45.1171 2.91927 44.9505 2.5284 44.8351 2.27208C44.7262 2.04781 44.6621 1.91966 44.6621 1.91966L44.5596 1.71461C44.3161 1.23402 44.5147 0.644506 44.9953 0.407417C45.3093 0.25363 45.6617 0.279261 45.9437 0.445864C45.9437 0.445864 46.2064 0.606059 46.5332 0.913633C46.86 1.22121 47.2701 1.68898 47.6289 2.32335C47.9942 2.95131 48.3146 3.74588 48.4748 4.64297C48.635 5.54006 48.6414 6.53327 48.4363 7.47521C48.353 7.94939 48.1864 8.40434 48.0198 8.84007C47.834 9.26939 47.6225 9.67308 47.3854 10.0383C47.1483 10.4036 46.892 10.7304 46.6229 11.0187C46.3602 11.3071 46.0847 11.557 45.8348 11.7684C45.5656 11.9735 45.3285 12.1593 45.0915 12.3003C44.8544 12.4412 44.6493 12.563 44.4763 12.6399C44.1175 12.8129 43.906 12.8898 43.906 12.8898Z" fill="white"/>
<path d="M36.4828 30.4345C36.3369 29.5819 36.1702 28.4604 36.0911 27.4991C36.1661 26.5436 36.3369 25.422 36.4828 24.5637C36.6078 23.8199 36.4119 23.6711 35.9619 24.1174C35.2826 24.7926 34.1449 25.691 32.5113 26.2174C32.1529 26.3318 31.832 26.3662 31.5278 26.3376C31.8237 26.1602 32.1363 25.8569 32.1446 25.3476C32.1571 24.4779 23.2848 16.2268 15.6711 21.0104C15.6294 21.0332 15.5878 21.0561 15.5461 21.0847C15.3752 21.1935 15.2127 21.3079 15.0544 21.4281C15.0335 21.4452 15.0127 21.4624 14.9918 21.4796H14.996C13.3082 22.7956 12.2414 24.8899 11.608 26.9956C11.5455 27.2073 11.5705 27.4076 11.658 27.4305L11.8205 27.482C11.8205 27.482 11.7497 27.5277 11.658 27.5335C11.3038 27.5563 11.7955 28.2315 11.8747 28.4318C12.3248 29.5877 13.3666 31.6133 15.1752 33.0438H15.171C22.4055 39.4009 28.9441 31.8593 31.3236 30.0912C32.2613 29.3931 31.757 28.7923 31.3111 28.4661C31.7029 28.3746 32.0987 28.3746 32.5071 28.5062C34.1741 29.0441 35.3243 30.0626 35.9994 30.8236C36.4369 31.3043 36.612 31.1841 36.4828 30.4345Z" fill="white"/>
</g>
<defs>
<clipPath id="clip0_6_1765">
<rect width="50" height="35.3902" fill="white" transform="translate(0 0.304932)"/>
</clipPath>
</defs>
</svg>
